 <svg version="1.0" xmlns="http://www.w3.org/2000/svg"  width="168.000000pt" height="124.000000pt" viewBox="0 0 168.000000 124.000000"  preserveAspectRatio="xMidYMid meet">  <g transform="translate(0.000000,124.000000) scale(0.100000,-0.100000)" fill="#000000" stroke="none"> <path d="M82 1085 c6 -11 14 -22 18 -25 9 -6 41 -68 39 -76 0 -4 3 -10 9 -13 11 -8 84 -138 82 -147 -1 -4 2 -10 8 -13 20 -13 81 -138 72 -147 -7 -7 -250 -433 -250 -438 0 -1 51 0 112 2 l113 3 44 82 c24 45 57 106 74 136 l30 54 22 -44 c13 -24 23 -48 23 -53 0 -5 4 -12 9 -15 5 -3 29 -41 52 -83 l42 -78 117 1 c64 0 111 3 104 6 -6 2 -10 9 -6 14 3 5 1 9 -4 9 -9 0 -37 50 -34 63 1 4 -2 7 -6 7 -10 0 -37 50 -34 63 1 4 -2 7 -7 7 -5 0 -15 16 -21 36 -8 24 -17 34 -27 30 -8 -3 -11 -1 -8 4 5 9 -51 127 -66 140 -3 3 -13 19 -22 35 -15 30 -15 31 100 235 63 113 117 210 119 215 3 6 -36 9 -108 8 l-113 -2 -63 -128 -64 -127 -22 42 c-12 24 -24 41 -26 38 -3 -2 -6 7 -7 21 0 14 -7 29 -15 34 -7 5 -8 9 -3 9 6 0 5 3 -1 8 -6 4 -22 29 -36 55 l-24 48 -116 2 c-113 2 -116 2 -106 -18z m220 -25 c10 -12 18 -29 18 -37 0 -7 9 -23 20 -35 10 -12 17 -25 14 -30 -3 -4 0 -8 6 -8 6 0 8 -4 5 -10 -3 -5 3 -17 15 -27 11 -10 20 -21 20 -26 0 -5 9 -20 20 -34 11 -14 20 -20 20 -14 0 7 5 9 10 6 6 -3 10 -1 10 5 0 6 5 8 11 5 6 -4 9 -1 7 7 -3 14 40 108 55 119 5 3 9 12 11 20 1 8 10 29 19 47 17 31 28 36 72 34 11 -1 41 -3 67 -4 45 -2 46 -2 36 -27 -5 -14 -19 -37 -31 -50 -12 -13 -15 -21 -7 -17 13 7 13 6 0 -6 -8 -7 -16 -20 -18 -28 -2 -8 -10 -22 -18 -31 -8 -9 -11 -19 -7 -22 3 -4 1 -7 -5 -7 -6 0 -21 -22 -34 -50 -13 -27 -26 -50 -30 -50 -5 0 -8 -7 -8 -15 0 -9 -11 -33 -25 -55 l-25 -40 35 -68 c53 -99 69 -126 80 -134 6 -4 7 -8 2 -8 -4 0 -1 -10 8 -23 8 -13 13 -26 9 -29 -3 -3 0 -9 7 -14 8 -5 10 -3 5 7 -4 8 -1 5 8 -5 8 -10 13 -23 10 -27 -3 -5 -1 -9 5 -9 10 0 27 -39 23 -53 -1 -5 2 -6 7 -3 11 7 23 -22 14 -36 -3 -6 -1 -8 4 -5 6 4 13 1 16 -7 4 -11 -13 -14 -81 -15 -97 -2 -86 -10 -143 95 -16 31 -24 53 -17 49 7 -4 4 2 -7 12 -11 10 -28 35 -39 55 -10 20 -25 39 -32 42 -17 7 -44 -3 -44 -15 0 -5 -12 -28 -27 -52 -14 -23 -25 -44 -24 -45 1 -2 -6 -10 -16 -19 -10 -8 -12 -11 -4 -8 14 8 -16 -45 -34 -57 -5 -4 -7 -8 -2 -8 4 0 0 -11 -9 -25 -15 -23 -22 -25 -100 -25 -46 0 -84 3 -84 8 0 4 15 25 32 47 18 22 28 36 21 32 -7 -5 -9 0 -6 13 3 11 9 17 14 14 5 -3 9 3 9 12 0 9 11 32 26 51 14 18 23 33 20 33 -3 0 6 16 19 36 14 20 25 41 25 46 0 5 13 28 29 51 40 59 45 82 27 118 -9 17 -14 35 -11 38 2 4 -7 15 -20 25 -14 10 -22 22 -19 27 3 5 -4 21 -15 35 -12 15 -21 33 -21 40 0 8 -5 14 -11 14 -5 0 -8 4 -5 8 3 5 -4 19 -15 30 -11 12 -17 22 -14 22 4 0 -3 16 -15 35 -12 20 -19 42 -16 50 3 8 0 17 -6 21 -7 5 -8 2 -3 -7 7 -11 5 -11 -9 1 -11 8 -14 16 -7 18 6 2 9 7 7 10 -2 4 30 6 72 5 66 -1 79 -4 94 -23z"/> <path d="M215 973 c8 -18 18 -33 20 -33 10 0 4 16 -16 40 l-20 25 16 -32z"/> <path d="M241 925 c12 -30 85 -155 91 -155 4 0 -13 35 -38 78 -43 73 -62 99 -53 77z"/> <path d="M603 901 c-35 -55 -94 -173 -90 -177 3 -3 22 28 42 68 20 40 43 80 50 88 19 24 27 40 18 40 -5 0 -13 -8 -20 -19z"/> <path d="M330 901 c0 -6 5 -13 10 -16 6 -4 20 -28 32 -53 22 -47 58 -101 58 -87 0 13 -72 140 -82 143 -4 2 -6 8 -2 13 3 5 0 9 -5 9 -6 0 -11 -4 -11 -9z"/> <path d="M479 819 c-16 -34 -28 -64 -25 -67 3 -3 13 12 22 34 9 21 23 51 30 67 8 15 12 27 9 27 -2 0 -19 -27 -36 -61z"/> <path d="M347 733 c9 -16 18 -29 19 -31 1 -2 4 4 8 13 3 9 2 13 -3 10 -5 -3 -12 4 -16 15 -3 11 -11 20 -16 20 -5 0 -2 -12 8 -27z"/> <path d="M486 694 c-9 -24 -2 -26 12 -4 7 11 8 20 3 20 -5 0 -12 -7 -15 -16z"/> <path d="M356 644 c-9 -24 -2 -26 12 -4 7 11 8 20 3 20 -5 0 -12 -7 -15 -16z"/> <path d="M495 645 c4 -11 10 -28 12 -37 3 -10 9 -18 14 -18 13 0 11 6 -12 42 -12 18 -18 24 -14 13z"/> <path d="M406 605 c-9 -26 -7 -32 5 -12 6 10 9 21 6 23 -2 3 -7 -2 -11 -11z"/> <path d="M313 574 c-7 -14 -7 -26 -2 -30 5 -3 9 -2 8 3 -1 4 1 16 6 26 12 28 1 29 -12 1z"/> <path d="M550 553 c0 -15 18 -35 23 -27 3 5 -1 15 -9 22 -8 7 -14 9 -14 5z"/> <path d="M631 424 c0 -11 3 -14 6 -6 3 7 2 16 -1 19 -3 4 -6 -2 -5 -13z"/> <path d="M244 302 c3 -6 -2 -13 -11 -15 -14 -4 -13 -5 5 -6 23 -1 30 13 10 25 -6 4 -8 3 -4 -4z"/> <path d="M160 290 c0 -5 5 -10 11 -10 5 0 7 5 4 10 -3 6 -8 10 -11 10 -2 0 -4 -4 -4 -10z"/> <path d="M688 283 c7 -3 16 -2 19 1 4 3 -2 6 -13 5 -11 0 -14 -3 -6 -6z"/> <path d="M763 650 c5 -276 4 -267 34 -325 42 -80 91 -107 194 -107 49 0 74 6 100 21 41 25 49 26 49 6 0 -12 17 -15 90 -15 l90 0 0 338 0 337 -100 0 -100 0 0 -221 0 -222 -35 -31 c-38 -33 -84 -41 -104 -18 -17 22 -19 50 -20 277 l-1 215 -101 0 -101 0 5 -255z m174 226 c3 -2 5 -105 6 -229 2 -236 6 -257 49 -257 10 0 17 -4 14 -9 -7 -11 10 -8 49 9 17 7 35 14 40 14 6 1 10 7 10 14 0 6 4 12 10 11 19 -1 24 41 24 244 1 158 4 207 14 208 63 6 137 2 141 -7 3 -7 5 -141 5 -298 1 -158 2 -290 2 -294 4 -28 -4 -32 -66 -32 -43 0 -74 5 -90 16 -18 11 -29 13 -43 5 -11 -6 -23 -7 -27 -3 -5 4 -5 2 -2 -4 4 -7 0 -15 -9 -18 -25 -10 -36 -7 -28 7 4 6 -1 4 -12 -5 -11 -9 -28 -15 -39 -13 -11 2 -31 4 -45 4 -40 1 -106 49 -121 87 -7 19 -16 34 -19 34 -4 0 -8 6 -9 13 -5 26 -10 487 -6 500 4 9 26 12 77 10 39 -2 73 -5 75 -7z"/> <path d="M810 835 c0 -8 5 -15 10 -15 6 0 10 5 10 11 0 6 14 9 33 7 l32 -3 5 -160 6 -160 2 168 2 167 -50 0 c-38 0 -50 -4 -50 -15z"/> <path d="M1172 698 l2 -153 6 145 5 145 33 3 c19 2 32 -1 32 -8 0 -6 5 -8 10 -5 23 14 7 25 -40 25 l-50 0 2 -152z"/> <path d="M810 801 c0 -6 4 -12 8 -15 5 -3 9 1 9 9 0 8 -4 15 -9 15 -4 0 -8 -4 -8 -9z"/> <path d="M1253 770 c0 -22 4 -40 8 -40 5 0 9 18 9 40 0 22 -4 40 -9 40 -4 0 -8 -18 -8 -40z"/> <path d="M810 756 c0 -8 5 -18 10 -21 6 -3 10 3 10 14 0 12 -4 21 -10 21 -5 0 -10 -6 -10 -14z"/> <path d="M816 693 c-4 -9 -3 -20 1 -24 4 -4 9 3 9 17 2 28 -1 31 -10 7z"/> <path d="M1251 694 c0 -11 3 -14 6 -6 3 7 2 16 -1 19 -3 4 -6 -2 -5 -13z"/> <path d="M816 597 c3 -10 9 -15 12 -12 3 3 0 11 -7 18 -10 9 -11 8 -5 -6z"/> <path d="M866 322 c-3 -5 1 -9 9 -9 8 0 12 4 9 9 -3 4 -7 8 -9 8 -2 0 -6 -4 -9 -8z"/> <path d="M1213 283 c9 -2 25 -2 35 0 9 3 1 5 -18 5 -19 0 -27 -2 -17 -5z"/> </g> </svg> 